<?xml version="1.0" encoding="utf-8"?>
<!-- Generator: Adobe Illustrator 24.0.0, SVG Export Plug-In . SVG Version: 6.00 Build 0)  -->
<svg version="1.1" id="Layer_1" xmlns="http://www.w3.org/2000/svg" xmlns:xlink="http://www.w3.org/1999/xlink" x="0px" y="0px"
	 viewBox="0 0 193 164" style="enable-background:new 0 0 193 164;" xml:space="preserve">
<style type="text/css">
	.st0{opacity:0.66;}
	.st1{fill:#FFFFFF;}
	.st2{fill:#666666;}
</style>
<g class="st0">
	<circle class="st1" cx="96.5" cy="82.5" r="75.5"/>
</g>
<g>
	<path class="st2" d="M96.5,90.33c5.52,0,9.97-4.48,9.97-10l0.03-20c0-5.53-4.47-10-10-10c-5.52,0-10,4.47-10,10v20
		C86.5,85.85,90.98,90.33,96.5,90.33z M114.17,80.33c0,10-8.45,17-17.67,17c-9.2,0-17.67-7-17.67-17h-5.67
		c0,11.39,9.07,20.79,20,22.4v10.94h6.67v-10.94c10.94-1.62,20-11.02,20-22.4H114.17z"/>
</g>
</svg>
